<svg width="42" height="42" viewBox="0 0 42 42" fill="none" xmlns="http://www.w3.org/2000/svg">
<path d="M9.1875 19.6875H35.4375C35.7856 19.6875 36.1194 19.8258 36.3656 20.0719C36.6117 20.3181 36.75 20.6519 36.75 21C36.75 21.3481 36.6117 21.6819 36.3656 21.9281C36.1194 22.1742 35.7856 22.3125 35.4375 22.3125H9.1875C8.8394 22.3125 8.50556 22.1742 8.25942 21.9281C8.01328 21.6819 7.875 21.3481 7.875 21C7.875 20.6519 8.01328 20.3181 8.25942 20.0719C8.50556 19.8258 8.8394 19.6875 9.1875 19.6875Z" fill="#17292B"/>
<path d="M9.73127 21.0002L20.6171 31.8834C20.8636 32.1299 21.002 32.4642 21.002 32.8127C21.002 33.1612 20.8636 33.4955 20.6171 33.7419C20.3707 33.9884 20.0364 34.1268 19.6879 34.1268C19.3394 34.1268 19.0051 33.9884 18.7586 33.7419L6.94614 21.9294C6.82391 21.8075 6.72694 21.6627 6.66077 21.5032C6.59461 21.3438 6.56055 21.1728 6.56055 21.0002C6.56055 20.8276 6.59461 20.6566 6.66077 20.4972C6.72694 20.3377 6.82391 20.1929 6.94614 20.0709L18.7586 8.25844C19.0051 8.01199 19.3394 7.87354 19.6879 7.87354C20.0364 7.87354 20.3707 8.01199 20.6171 8.25844C20.8636 8.5049 21.002 8.83916 21.002 9.18769C21.002 9.53623 20.8636 9.87049 20.6171 10.1169L9.73127 21.0002Z" fill="#17292B"/>
</svg>
