<svg width="237" height="237" viewBox="0 0 237 237" fill="none" xmlns="http://www.w3.org/2000/svg">
<g clip-path="url(#clip0_398_623)">
<path d="M150.08 149.899C148.664 150.253 148.547 150.235 147.248 151.314C144.543 153.559 141.827 154.828 139.812 155.556C138.984 155.91 135.624 157.239 131.669 155.91C128.377 154.803 126.589 152.498 126.004 151.667C124.942 150.391 123.165 147.98 122.11 144.596C120.963 140.916 120.977 137.052 121.579 133.457C121.278 133.778 120.98 134.072 120.694 134.344C120.088 134.697 116.512 136.716 112.196 135.405C111.336 135.143 108.465 134.149 106.531 131.162C104.283 127.69 104.963 124.098 105.115 123.384L108.656 110.657L60.1504 97.9297" stroke="#8BBBC1" stroke-width="2" stroke-miterlimit="10"/>
<path d="M58.2811 103.398C54.5246 101.355 48.4561 98.7953 40.9608 98.7034C38.8223 98.6751 35.4588 98.6645 31.3943 100.061C27.3226 101.461 24.6318 103.561 22.8686 104.961C22.8686 104.961 18.7191 108.256 15.3875 113.05C10.937 119.449 4.69861 137.66 0.584507 162.814C0.322507 164.85 0.149021 167.972 0.888993 171.656C1.08372 172.628 2.11048 177.475 5.78202 182.643C6.40869 183.527 8.83396 186.843 12.8206 189.757C21.2258 195.898 30.7853 196.025 34.3825 195.89" stroke="#8BBBC1" stroke-width="2" stroke-miterlimit="10"/>
<path d="M126.004 232.273C125.608 232.945 124.436 234.719 122.11 235.808C119.727 236.922 117.564 236.65 116.799 236.515C70.2443 227.447 37.0836 217.979 35.0124 214.243C33.4794 211.474 32.8881 208.586 32.8881 208.586C32.4809 206.588 32.4632 204.867 32.534 203.636L60.5043 95.4544C60.8796 94.2701 64.3705 83.8478 75.0205 80.2523C82.1086 77.8589 88.2798 79.8705 90.2448 80.6059C91.5725 78.8135 93.8384 76.2468 97.3259 74.2422C104.248 70.2685 111.325 71.1912 115.737 71.7675C120.336 72.3685 125.406 73.0296 130.253 76.717C138.304 82.8402 139.564 92.5978 139.812 95.1009C141.993 95.0938 148.632 95.3554 152.558 100.05C154.467 102.334 155.228 105.056 156.099 108.182C156.099 108.182 157.342 112.633 157.515 117.02C157.784 123.748 145.491 169.807 126.004 232.273Z" stroke="#8BBBC1" stroke-width="2" stroke-miterlimit="10"/>
<path d="M52.8531 124.399C49.6843 123.395 46.5191 122.387 43.3503 121.383C42.1253 120.969 39.9373 120.45 37.6855 121.27C35.0336 122.235 33.6776 124.561 32.9907 125.774C30.3353 130.473 26.1469 144.278 21.9796 163.037C21.6327 163.85 21.0414 165.6 21.5335 167.626C21.9336 169.266 22.8648 170.355 23.5871 171.203C23.5871 171.203 24.6032 172.395 26.0229 173.374C29.9034 176.054 38.8715 177.076 39.2575 177.122" stroke="#8BBBC1" stroke-width="2" stroke-miterlimit="10"/>
<path d="M130.607 217.779L198.585 199.395C199.127 199.314 201.959 198.833 203.896 196.213C205.964 193.413 205.411 190.344 205.312 189.849L174.864 79.8996C174.577 78.0542 173.745 74.3668 170.969 70.7077C170.052 69.4986 167.474 66.1895 162.826 64.3441C156.017 61.643 149.779 64.0754 148.31 64.6976C146.476 62.6895 141.912 58.242 134.501 56.2127C128.415 54.5476 123.274 55.2971 120.693 55.8592C119.132 56.1986 114.547 57.3334 109.718 60.8087C104.301 64.7047 101.22 70.3542 100.158 72.8289" stroke="#8BBBC1" stroke-width="2" stroke-miterlimit="10"/>
<path d="M177.342 88.3841C180.808 86.6623 188.148 83.4063 196.107 83.081C197.296 83.0315 199.559 82.9502 202.48 83.4346C207.56 84.276 210.998 86.2204 211.685 86.6164C211.685 86.6164 215.091 88.5856 218.058 91.9194C227.547 102.571 234.801 130.087 236.469 147.778C236.663 149.839 236.95 153.537 235.761 158.031C234.553 162.591 232.365 165.943 230.804 167.93C227.568 172.048 224.031 174.117 221.244 175.707C214.691 179.451 208.19 180.869 203.188 181.364" stroke="#8BBBC1" stroke-width="2" stroke-miterlimit="10"/>
<path d="M183.006 108.889C187.899 107.393 191.634 106.389 193.273 106.06C193.829 105.947 194.481 105.848 195.27 105.827C196.35 105.799 197.249 105.93 197.876 106.06C198.28 106.163 198.829 106.326 199.455 106.577C199.455 106.577 201.218 107.277 202.833 108.535C204.518 109.847 209.599 126.113 214.163 149.192C214.063 150.242 213.766 151.96 212.746 153.788C211.592 155.852 210.109 156.994 209.206 157.677C204.869 160.943 199.437 161.198 197.522 161.212" stroke="#8BBBC1" stroke-width="2" stroke-miterlimit="10"/>
<path d="M175.218 81.3135L139.459 91.2125" stroke="#8BBBC1" stroke-width="2" stroke-miterlimit="10"/>
<path d="M38.457 56.916L67.6806 64.3473" stroke="#8BBBC1" stroke-width="2" stroke-miterlimit="10" stroke-linecap="round"/>
<path d="M68.5449 29.916L83.6205 55.9928" stroke="#8BBBC1" stroke-width="2" stroke-miterlimit="10" stroke-linecap="round"/>
<path d="M106.451 17.4297L98.8242 46.5611" stroke="#8BBBC1" stroke-width="2" stroke-miterlimit="10" stroke-linecap="round"/>
<path d="M21.559 27.5152C28.7939 27.5152 34.659 21.6587 34.659 14.4344C34.659 7.21001 28.7939 1.35352 21.559 1.35352C14.324 1.35352 8.45898 7.21001 8.45898 14.4344C8.45898 21.6587 14.324 27.5152 21.559 27.5152Z" stroke="#8BBBC1" stroke-width="2" stroke-miterlimit="10"/>
<path d="M192.92 54.7984C200.155 54.7984 206.02 48.9419 206.02 41.7176C206.02 34.4932 200.155 28.6367 192.92 28.6367C185.685 28.6367 179.82 34.4932 179.82 41.7176C179.82 48.9419 185.685 54.7984 192.92 54.7984Z" stroke="#8BBBC1" stroke-width="2" stroke-miterlimit="10"/>
<path d="M15.3622 88.3841C21.7172 88.3841 26.869 83.2399 26.869 76.8942C26.869 70.5485 21.7172 65.4043 15.3622 65.4043C9.00721 65.4043 3.85547 70.5485 3.85547 76.8942C3.85547 83.2399 9.00721 88.3841 15.3622 88.3841Z" stroke="#8BBBC1" stroke-width="2" stroke-miterlimit="10"/>
<path d="M146.716 24.3334C153.071 24.3334 158.222 19.1891 158.222 12.8434C158.222 6.49773 153.071 1.35352 146.716 1.35352C140.361 1.35352 135.209 6.49773 135.209 12.8434C135.209 19.1891 140.361 24.3334 146.716 24.3334Z" stroke="#8BBBC1" stroke-width="2" stroke-miterlimit="10"/>
</g>
<defs>
<clipPath id="clip0_398_623">
<rect width="237" height="237" fill="white"/>
</clipPath>
</defs>
</svg>
