<svg width="212" height="212" viewBox="0 0 212 212" fill="none" xmlns="http://www.w3.org/2000/svg">
<g clip-path="url(#clip0_360_501)">
<path d="M134.248 134.087C132.981 134.404 132.877 134.388 131.714 135.352C129.295 137.36 126.866 138.496 125.064 139.147C124.323 139.464 121.317 140.653 117.779 139.464C114.834 138.474 113.235 136.412 112.712 135.669C111.762 134.527 110.172 132.37 109.228 129.344C108.202 126.052 108.215 122.595 108.753 119.379C108.484 119.667 108.218 119.929 107.961 120.173C107.42 120.489 104.221 122.295 100.361 121.121C99.5909 120.887 97.0224 119.999 95.2932 117.326C93.2821 114.221 93.8902 111.008 94.0264 110.369L97.1934 98.9844L53.8047 87.5996" stroke="#F7F8F6" stroke-width="2" stroke-miterlimit="10"/>
<path d="M52.1322 92.4917C48.7719 90.6638 43.3436 88.3742 36.6389 88.292C34.726 88.2667 31.7173 88.2572 28.0815 89.5064C24.4394 90.7587 22.0324 92.6372 20.4552 93.8895C20.4552 93.8895 16.7434 96.8369 13.7632 101.125C9.78219 106.849 4.20182 123.139 0.521696 145.64C0.287334 147.461 0.132148 150.254 0.794064 153.549C0.968252 154.418 1.8867 158.754 5.17094 163.378C5.73151 164.168 7.90095 167.135 11.4671 169.74C18.9857 175.234 27.5367 175.347 30.7545 175.227" stroke="#F7F8F6" stroke-width="2" stroke-miterlimit="10"/>
<path d="M112.713 207.772C112.359 208.373 111.31 209.96 109.23 210.934C107.098 211.93 105.163 211.687 104.479 211.567C62.8353 203.455 33.1726 194.986 31.3199 191.643C29.9485 189.167 29.4196 186.583 29.4196 186.583C29.0554 184.797 29.0396 183.257 29.1029 182.156L54.1227 85.3855C54.4584 84.3261 57.5811 75.0033 67.1077 71.7871C73.4481 69.6461 78.9683 71.4455 80.726 72.1033C81.9137 70.5 83.9406 68.204 87.0602 66.4109C93.2518 62.8564 99.5827 63.6818 103.529 64.1972C107.643 64.7349 112.178 65.3262 116.514 68.6246C123.716 74.102 124.843 82.8303 125.065 85.0693C127.016 85.063 132.954 85.297 136.466 89.4967C138.173 91.5396 138.854 93.9747 139.633 96.7703C139.633 96.7703 140.745 100.752 140.9 104.676C141.141 110.694 130.145 151.895 112.713 207.772Z" stroke="#F7F8F6" stroke-width="2" stroke-miterlimit="10"/>
<path d="M47.2776 111.276C44.4431 110.378 41.6117 109.477 38.7772 108.579C37.6814 108.209 35.7242 107.744 33.7099 108.478C31.3378 109.341 30.1248 111.422 29.5104 112.507C27.1351 116.709 23.3885 129.059 19.6608 145.839C19.3505 146.566 18.8216 148.131 19.2618 149.943C19.6197 151.411 20.4526 152.385 21.0987 153.144C21.0987 153.144 22.0076 154.21 23.2776 155.086C26.7487 157.483 34.7709 158.397 35.1161 158.438" stroke="#F7F8F6" stroke-width="2" stroke-miterlimit="10"/>
<path d="M116.83 194.806L177.638 178.361C178.123 178.288 180.656 177.858 182.389 175.515C184.238 173.01 183.744 170.265 183.656 169.822L156.419 71.4708C156.162 69.8201 155.418 66.5216 152.935 63.2485C152.115 62.167 149.809 59.2069 145.651 57.5561C139.56 55.14 133.98 57.3158 132.666 57.8724C131.025 56.0761 126.943 52.0978 120.314 50.2825C114.87 48.793 110.272 49.4635 107.963 49.9663C106.566 50.2699 102.465 51.285 98.1448 54.3937C93.2992 57.8787 90.5439 62.9323 89.5938 65.146" stroke="#F7F8F6" stroke-width="2" stroke-miterlimit="10"/>
<path d="M158.635 79.0609C161.735 77.5208 168.301 74.6082 175.42 74.3172C176.484 74.273 178.508 74.2002 181.121 74.6335C185.666 75.3861 188.741 77.1255 189.355 77.4797C189.355 77.4797 192.402 79.2412 195.056 82.2233C203.544 91.7517 210.033 116.365 211.525 132.19C211.699 134.033 211.955 137.341 210.891 141.361C209.811 145.44 207.854 148.438 206.457 150.216C203.563 153.9 200.399 155.75 197.906 157.173C192.044 160.522 186.229 161.79 181.754 162.233" stroke="#F7F8F6" stroke-width="2" stroke-miterlimit="10"/>
<path d="M163.703 97.4028C168.08 96.0651 171.421 95.167 172.888 94.8728C173.385 94.7716 173.968 94.6831 174.674 94.6641C175.64 94.6388 176.444 94.7558 177.005 94.8728C177.366 94.9646 177.857 95.11 178.417 95.3346C178.417 95.3346 179.994 95.9607 181.439 97.0865C182.946 98.2598 187.491 112.81 191.573 133.455C191.485 134.394 191.219 135.931 190.306 137.566C189.274 139.413 187.947 140.434 187.139 141.044C183.26 143.966 178.401 144.194 176.688 144.207" stroke="#F7F8F6" stroke-width="2" stroke-miterlimit="10"/>
<path d="M156.735 72.7358L124.748 81.5907" stroke="#F7F8F6" stroke-width="2" stroke-miterlimit="10"/>
<path d="M34.4004 50.9121L60.5413 57.5595" stroke="#F7F8F6" stroke-width="2" stroke-miterlimit="10" stroke-linecap="round"/>
<path d="M61.3145 26.7607L74.7998 50.0868" stroke="#F7F8F6" stroke-width="2" stroke-miterlimit="10" stroke-linecap="round"/>
<path d="M95.2203 15.5908L88.3984 41.6493" stroke="#F7F8F6" stroke-width="2" stroke-miterlimit="10" stroke-linecap="round"/>
<path d="M19.2845 24.7184C25.7563 24.7184 31.0027 19.4797 31.0027 13.0174C31.0027 6.55512 25.7563 1.31641 19.2845 1.31641C12.8128 1.31641 7.56641 6.55512 7.56641 13.0174C7.56641 19.4797 12.8128 24.7184 19.2845 24.7184Z" stroke="#F7F8F6" stroke-width="2" stroke-miterlimit="10"/>
<path d="M172.57 49.0177C179.041 49.0177 184.288 43.779 184.288 37.3167C184.288 30.8544 179.041 25.6157 172.57 25.6157C166.098 25.6157 160.852 30.8544 160.852 37.3167C160.852 43.779 166.098 49.0177 172.57 49.0177Z" stroke="#F7F8F6" stroke-width="2" stroke-miterlimit="10"/>
<path d="M13.7422 79.0607C19.4268 79.0607 24.0351 74.4591 24.0351 68.7828C24.0351 63.1065 19.4268 58.5049 13.7422 58.5049C8.05753 58.5049 3.44922 63.1065 3.44922 68.7828C3.44922 74.4591 8.05753 79.0607 13.7422 79.0607Z" stroke="#F7F8F6" stroke-width="2" stroke-miterlimit="10"/>
<path d="M131.24 21.8722C136.925 21.8722 141.533 17.2706 141.533 11.5943C141.533 5.91798 136.925 1.31641 131.24 1.31641C125.556 1.31641 120.947 5.91798 120.947 11.5943C120.947 17.2706 125.556 21.8722 131.24 21.8722Z" stroke="#F7F8F6" stroke-width="2" stroke-miterlimit="10"/>
</g>
<defs>
<clipPath id="clip0_360_501">
<rect width="212" height="212" fill="white"/>
</clipPath>
</defs>
</svg>
