<?xml version="1.0" encoding="UTF-8"?>
<svg id="Layer_1" xmlns="http://www.w3.org/2000/svg" xmlns:xlink="http://www.w3.org/1999/xlink" version="1.1" viewBox="0 0 1510 232.5">
  <!-- Generator: Adobe Illustrator 29.1.0, SVG Export Plug-In . SVG Version: 2.1.0 Build 142)  -->
  <defs>
    <style>
      .st0 {
        fill: none;
      }

      .st1 {
        fill: #e0eeef;
      }

      .st2 {
        clip-path: url(#clippath);
      }
    </style>
    <clipPath id="clippath">
      <rect class="st0" x="1130" width="198" height="233"/>
    </clipPath>
  </defs>
  <path class="st1" d="M22,32h36.6l63.7,155.5h2.3l63.7-155.5h36.6v200h-28.7V87.3h-1.9l-59,144.4h-23.8L52.5,87.2h-1.9v144.8h-28.7V32h.1ZM279.3,232h-32l72-200h34.9l72,200h-32l-56.5-163.7h-1.6l-56.6,163.7h-.2ZM284.7,153.7h103.9v25.4h-103.9v-25.4ZM448.7,232V32h30.2v174h90.6v26h-120.8ZM561.7,58v-26h154.8v26h-62.4v174h-30.1V58h-62.3ZM976.9,97h-30.5c-1.2-6.5-3.4-12.2-6.5-17.2-3.2-4.9-7.1-9.1-11.7-12.6-4.6-3.5-9.8-6.1-15.5-7.8-5.7-1.8-11.7-2.6-18.1-2.6-11.5,0-21.8,2.9-31,8.7-9,5.8-16.2,14.3-21.5,25.5-5.2,11.2-7.8,24.9-7.8,41s2.6,30,7.8,41.2c5.3,11.2,12.5,19.7,21.6,25.4,9.1,5.7,19.4,8.6,30.8,8.6s12.3-.8,18-2.5c5.7-1.8,10.9-4.3,15.5-7.7,4.6-3.4,8.5-7.5,11.7-12.4,3.3-4.9,5.5-10.6,6.7-17h30.5c-1.6,9.9-4.8,19-9.5,27.2-4.6,8.2-10.6,15.3-17.9,21.3-7.2,5.9-15.5,10.5-24.8,13.8s-19.5,4.9-30.5,4.9c-17.3,0-32.7-4.1-46.3-12.3-13.5-8.3-24.2-20.1-32-35.4-7.7-15.4-11.6-33.7-11.6-55s3.9-39.7,11.7-55c7.8-15.4,18.5-27.1,32-35.4s28.9-12.4,46.2-12.4,20.5,1.5,29.7,4.6c9.2,3,17.5,7.4,24.9,13.3,7.4,5.8,13.4,12.9,18.3,21.3,4.8,8.3,8.1,17.9,9.8,28.6h0ZM1006.7,232V32h30.2v174h90.6v26h-120.8ZM1352,232V32h73.2c14.2,0,25.9,2.3,35.3,7,9.3,4.6,16.3,10.9,20.9,18.8,4.6,7.9,6.9,16.8,6.9,26.7s-1.5,15.4-4.6,21.1c-3.1,5.7-7.2,10.2-12.3,13.7-5.1,3.4-10.7,5.9-16.8,7.4v2c6.6.3,13.1,2.5,19.4,6.4,6.4,3.9,11.7,9.5,15.8,16.7,4.2,7.2,6.2,16,6.2,26.4s-2.4,19.4-7.2,27.5c-4.8,8.1-12.1,14.5-22.1,19.2s-22.7,7-38.2,7h-76.7.2ZM1382.2,206.1h43.6c14.5,0,24.8-2.8,31.1-8.4s9.4-12.6,9.4-21-1.6-12.1-4.8-17.4c-3.2-5.3-7.8-9.5-13.7-12.6-5.9-3.1-12.8-4.7-20.9-4.7h-44.6v64.1h0ZM1382.2,118.5h40.4c6.8,0,12.9-1.3,18.3-3.9,5.5-2.6,9.8-6.2,13-10.9,3.2-4.8,4.9-10.4,4.9-16.8s-2.9-15.2-8.7-20.8c-5.8-5.6-14.7-8.4-26.7-8.4h-41.2v60.8h0Z"/>
  <g class="st2">
    <g>
      <path class="st1" d="M1191.8,85.5h-1.6c-6.3-.3-11.5-2.7-15.3-5.3-4.1,2.1-9.6,3.9-15.9,3.3-14-1.3-29-13.9-28.9-32,0-8.2,3.3-16.4,9-22.4,4.7-5,10.7-8.2,17.1-9.2,6.8-11.5,18-18.9,30.4-19.7,13.3-.9,26.1,6,34,17.8,2.8-.9,5.9-1.4,9.5-1.2,4.8.3,8.8,1.8,12.1,3.7,5.7-5.8,13.8-10.5,23.3-10.4,16.3,0,30.8,13.8,33.2,31.2,2.2,16.2-6.9,29.2-12.8,34.5-3,2.9-10.6,9-21.4,9h-.3c-7.5,0-13.5-3-17.8-6.2-3.9,3.2-9.5,6.2-16.6,6.2s-13-2.4-18.1-6.8c-4.7,3.9-11.3,7.5-19.6,7.5h-.3ZM1253.2,70.5h0ZM1219.1,69.4h0c0,.1,0,0,0,0ZM1204,68.5h0ZM1175.5,58.1c2.3,0,4.5.9,6.3,2.8,1.2,1.3,4.6,4.3,9.3,4.6,7.9.4,13.1-7.4,13.3-7.7,1.8-2.8,4.8-4.4,7.9-4.2,3.2.2,6,2.1,7.5,5.1,1.9,3.8,5.5,6.1,9.3,6.1h0c5.5,0,8.7-5.3,8.9-5.5,1.6-2.6,4.3-4.3,7.2-4.4,2.9-.1,5.7,1.3,7.5,3.8.7,1,4.8,6.1,11.1,6.1h0c4.8,0,8.2-2.9,9.5-4.1l.4-.4s7.6-7,6.4-16c-1.1-7.7-7.9-14.1-15.3-14.1h0c-8.5,0-13.7,8.9-13.9,9.2-1.5,2.6-4.1,4.4-6.9,4.7-2.8.3-5.7-.9-7.6-3.2-.8-.9-3.5-3.8-7.7-4.1-3.3-.2-5.8,1.3-7,2.2-2.3,1.7-5.1,2.2-7.7,1.4-2.7-.8-4.8-2.9-5.9-5.7-3.7-9.3-12-15.1-20.8-14.5-7.6.5-14.3,5.7-17.8,13.6-1.6,3.6-4.9,5.9-8.6,5.8h0c-3.6,0-7,1.3-9.6,4-2.2,2.3-3.4,5.2-3.4,8.1,0,6.7,7.1,11.5,12.3,12,4.2.4,7.8-1.9,9.5-3.3,1.7-1.3,3.6-2,5.5-2h0v-.3ZM1224.9,26.6h0ZM1153.3,25h0Z"/>
      <path class="st1" d="M1267.2,233c-1.4,0-2.6-.2-3.7-.4h-88.8c-8.3,0-15.9-5.1-19.6-13.1-.2-.4-.4-.8-.5-1.2-1.5-3.7-2.1-7.8-2-11.9V78h18.2v129.3c0,.7,0,1.9.4,3,0,.1,0,.2,0,.3.6,1.2,1.8,2,3.3,2h88.3c1.2,0,2.5.1,3.8.4h.6c0,0,.6-.7.5-1.8V73.8h18.2v136.8c.2,8.6-3.8,16.4-10.4,20.1-3,1.7-6,2.2-8.5,2.2h0Z"/>
      <path class="st1" d="M1290,209.7c-4.7,0-9.6-.4-14.5-1.3l-7.7-1.4.7-128.6h39c2.8-.6,7-.7,11.4,1.9,6.2,3.7,9.7,11.2,9,19.3v81.6c-.4,5.3-1.9,12.9-7.5,19.1-3.9,4.2-8.6,6.6-16.3,8.1-4.6.9-9.3,1.3-14.1,1.3h0ZM1286.1,189.6c5.1.3,10,0,14.7-.9,5.3-1,6.2-2,6.7-2.6,1.6-1.7,2-4.4,2.2-6v-81.7h-23.1l-.5,91.1h0Z"/>
    </g>
  </g>
</svg>