<svg width="237" height="237" viewBox="0 0 237 237" fill="none" xmlns="http://www.w3.org/2000/svg">
<path d="M128.375 217.25C120.297 217.25 112.575 213.883 97.1404 207.138C79.1185 199.277 65.333 193.254 55.7641 187.625M128.375 217.25C136.453 217.25 144.175 213.883 159.61 207.138C198.033 190.37 217.25 181.996 217.25 167.875V64.1875M128.375 217.25V108.625M39.5 64.1875V93.8125" stroke="#8BBBC1" stroke-width="2" stroke-linecap="round" stroke-linejoin="round"/>
<path d="M8.77734 120.381H34.5622H49.3747M19.7496 144.206H67.8706M12.5392 170.54H56.4281M92.0939 95.6986L63.249 81.7452C47.4194 74.0822 39.4997 70.2507 39.4997 64.1875C39.4997 58.1242 47.4194 54.2927 63.249 46.6297L92.084 32.6764C109.908 24.0555 118.796 19.75 128.375 19.75C137.953 19.75 146.851 24.0555 164.655 32.6764L193.5 46.6297C209.33 54.2927 217.25 58.1242 217.25 64.1875C217.25 70.2507 209.33 74.0822 193.5 81.7452L164.665 95.6986C146.841 104.319 137.953 108.625 128.375 108.625C118.796 108.625 109.899 104.319 92.0939 95.6986Z" stroke="#8BBBC1" stroke-width="2" stroke-linecap="round" stroke-linejoin="round"/>
</svg>
