<svg width="259" height="259" viewBox="0 0 259 259" fill="none" xmlns="http://www.w3.org/2000/svg">
<path d="M97.125 186.156V197.023C97.1255 201.276 96.288 205.488 94.6604 209.417C93.0328 213.346 90.6469 216.916 87.6391 219.923L80.9375 226.625H178.063L171.361 219.923C168.353 216.916 165.967 213.346 164.34 209.417C162.712 205.488 161.874 201.276 161.875 197.023V186.156M226.625 56.6563V161.875C226.625 168.315 224.067 174.491 219.513 179.044C214.96 183.598 208.784 186.156 202.344 186.156H56.6563C50.2165 186.156 44.0404 183.598 39.4868 179.044C34.9332 174.491 32.375 168.315 32.375 161.875V56.6563M226.625 56.6563C226.625 50.2165 224.067 44.0404 219.513 39.4868C214.96 34.9332 208.784 32.375 202.344 32.375H56.6563C50.2165 32.375 44.0404 34.9332 39.4868 39.4868C34.9332 44.0404 32.375 50.2165 32.375 56.6563M226.625 56.6563V129.5C226.625 135.94 224.067 142.116 219.513 146.669C214.96 151.223 208.784 153.781 202.344 153.781H56.6563C50.2165 153.781 44.0404 151.223 39.4868 146.669C34.9332 142.116 32.375 135.94 32.375 129.5V56.6563" stroke="#8BBBC1" stroke-width="2" stroke-linecap="round" stroke-linejoin="round"/>
<path d="M113.275 76.4325L106.844 69.9444M147.571 76.4325L154.002 69.9444M106.839 117.544L113.271 111.052M130.421 67.7831V59.125M104.696 93.7444H96.125M156.828 119.658L173.514 113.069C173.917 112.908 174.262 112.63 174.505 112.271C174.748 111.911 174.878 111.488 174.878 111.054C174.878 110.62 174.748 110.197 174.505 109.838C174.262 109.479 173.917 109.2 173.514 109.039L133.418 93.2237C133.027 93.0727 132.601 93.0387 132.192 93.126C131.782 93.2132 131.407 93.418 131.113 93.7151C130.818 94.0122 130.616 94.3889 130.532 94.7989C130.448 95.2089 130.485 95.6346 130.639 96.0238L146.311 136.497C147.019 138.334 149.592 138.334 150.301 136.497L156.828 119.658Z" stroke="#8BBBC1" stroke-width="2" stroke-linecap="round" stroke-linejoin="round"/>
</svg>
